{"glyphs":{":":{"x_min":0,"x_max":360,"ha":360,"o":"m 132 547 l 291 547 l 258 358 l 100 358 z m 70 189 l 229 189 l 195 0 l 37 0 z"},"$":{"x_min":0,"x_max":626,"ha":626,"o":"m 262 -147 l 191 -147 l 217 0 q 161 2 113 13 q 65 23 24 42 l 46 170 q 88 143 135 128 q 183 113 236 111 l 263 263 q 170 278 128 318 q 86 357 86 427 q 86 524 152 584 q 218 644 330 648 l 350 760 l 420 760 l 401 649 q 446 646 487 638 q 528 629 567 616 l 545 492 q 518 510 476 522 q 434 533 381 537 l 356 396 q 450 378 495 339 q 540 299 540 234 q 540 126 474 65 q 408 4 288 0 z m 288 408 l 310 536 q 273 532 251 512 q 229 493 229 463 q 229 439 244 426 q 258 413 288 408 z m 332 250 l 307 111 q 351 113 374 134 q 397 155 397 192 q 397 217 382 231 q 366 245 332 250 z"},"?":{"x_min":0,"x_max":522,"ha":522,"o":"m 125 174 l 283 174 l 252 0 l 94 0 z m 295 246 l 137 246 l 140 270 q 147 309 167 340 q 186 370 243 420 l 275 448 q 310 478 326 504 q 342 530 342 556 q 342 584 324 599 q 306 614 273 614 q 238 614 194 597 q 149 581 99 549 l 126 702 q 182 723 228 732 q 274 742 317 742 q 402 742 451 700 q 499 659 499 586 q 499 528 476 482 q 452 436 396 386 l 362 357 q 327 327 315 308 q 302 289 299 268 z"},"<":{"x_min":0,"x_max":754,"ha":754,"o":"m 659 475 l 235 313 l 659 152 l 659 30 l 95 256 l 95 371 l 659 597 z"},"'":{"x_min":0,"x_max":275,"ha":275,"o":"m 190 729 l 190 458 l 86 458 l 86 729 z"},"=":{"x_min":0,"x_max":754,"ha":754,"o":"m 95 482 l 659 482 l 659 367 l 95 367 z m 95 260 l 659 260 l 659 144 l 95 144 z"},"a":{"x_min":0,"x_max":607,"ha":607,"o":"m 296 246 q 237 246 207 226 q 177 206 177 166 q 177 136 195 119 q 213 102 244 102 q 292 102 325 135 q 357 167 368 226 l 372 246 z m 542 312 l 487 0 l 330 0 l 343 81 q 304 32 261 9 q 218 -14 167 -14 q 98 -14 57 26 q 16 66 16 135 q 16 239 88 295 q 161 350 298 350 l 391 350 l 393 364 q 394 371 394 374 q 394 376 394 379 q 394 411 367 427 q 339 444 285 444 q 236 444 191 433 q 145 421 103 399 l 126 532 q 175 546 227 553 q 279 560 334 560 q 443 560 497 518 q 550 477 550 391 q 550 375 548 355 q 546 335 542 312 z"},"L":{"x_min":0,"x_max":573,"ha":573,"o":"m 147 729 l 316 729 l 213 142 l 509 142 l 485 0 l 19 0 z"},"3":{"x_min":0,"x_max":626,"ha":626,"o":"m 425 393 q 475 380 502 342 q 530 303 530 247 q 530 126 444 56 q 357 -14 206 -14 q 149 -14 97 -5 q 46 4 0 22 l 25 167 q 64 142 110 128 q 156 114 203 114 q 277 114 320 145 q 363 176 363 228 q 363 271 330 293 q 297 315 231 315 l 164 315 l 186 436 l 257 436 q 326 436 366 464 q 406 492 406 539 q 406 576 378 596 q 350 615 297 615 q 260 615 216 604 q 172 594 125 573 l 148 711 q 200 727 250 734 q 301 742 350 742 q 461 742 517 701 q 573 660 573 579 q 573 506 534 458 q 496 409 425 393 z"},";":{"x_min":0,"x_max":360,"ha":360,"o":"m 71 189 l 229 189 l 203 40 l 62 -142 l -31 -142 l 44 40 z m 133 547 l 292 547 l 259 358 l 100 358 z"},"J":{"x_min":0,"x_max":334,"ha":334,"o":"m 147 729 l 316 729 l 201 71 q 175 -72 101 -136 q 26 -200 -115 -200 l -149 -200 l -125 -58 l -98 -58 q -46 -58 -13 -25 q 21 8 32 71 z"},"V":{"x_min":0,"x_max":696,"ha":696,"o":"m 68 729 l 229 729 l 310 184 l 582 729 l 756 729 l 385 0 l 184 0 z"},"\"":{"x_min":0,"x_max":469,"ha":469,"o":"m 383 729 l 383 458 l 279 458 l 279 729 z m 190 729 l 190 458 l 86 458 l 86 729 z"},"7":{"x_min":0,"x_max":626,"ha":626,"o":"m 130 729 l 625 729 l 604 622 l 239 0 l 70 0 l 417 591 l 106 591 z"},"S":{"x_min":0,"x_max":648,"ha":648,"o":"m 599 706 l 571 552 q 521 579 473 593 q 425 606 379 606 q 315 606 280 584 q 245 562 245 523 q 245 498 260 484 q 276 470 325 457 l 394 438 q 481 414 522 367 q 562 321 562 248 q 562 129 481 58 q 400 -14 264 -14 q 200 -14 137 -1 q 74 12 14 38 l 41 197 q 99 159 154 141 q 209 122 263 122 q 321 122 357 148 q 394 175 394 216 q 394 243 377 258 q 361 272 306 288 l 237 307 q 160 328 123 374 q 86 419 86 491 q 86 605 164 674 q 243 742 375 742 q 429 742 485 733 q 541 724 599 706 z"},"}":{"x_min":0,"x_max":641,"ha":641,"o":"m 59 -53 l 89 -53 q 151 -53 173 -31 q 196 -10 208 59 l 222 140 q 235 216 262 251 q 288 286 338 299 q 303 308 287 330 q 270 352 270 390 q 270 402 272 418 q 274 435 277 457 l 292 538 q 295 559 297 571 q 298 583 298 592 q 298 625 280 637 q 262 650 211 650 l 182 650 l 201 760 l 297 760 q 376 760 415 730 q 455 700 455 640 q 455 626 453 612 q 451 597 448 580 l 431 480 q 429 465 427 452 q 426 439 426 428 q 426 385 446 368 q 467 350 518 350 l 545 350 l 525 241 l 499 241 q 437 241 408 213 q 379 184 367 111 l 350 17 q 334 -77 282 -120 q 231 -163 135 -163 l 40 -163 z"},"Z":{"x_min":0,"x_max":652,"ha":652,"o":"m 115 729 l 667 729 l 646 613 l 220 142 l 574 142 l 548 0 l -23 0 l -3 116 l 424 587 l 90 587 z"},"x":{"x_min":0,"x_max":580,"ha":580,"o":"m 200 280 l 69 547 l 232 547 l 306 385 l 433 547 l 604 547 l 380 281 l 517 0 l 354 0 l 276 173 l 134 0 l -37 0 z"},")":{"x_min":0,"x_max":411,"ha":411,"o":"m 132 759 l 261 759 q 294 679 311 601 q 328 523 328 445 q 328 299 272 156 q 217 12 105 -132 l -24 -132 q 79 20 129 168 q 180 316 180 466 q 180 539 168 612 q 156 684 132 759 z"},"&":{"x_min":0,"x_max":785,"ha":785,"o":"m 385 447 l 516 264 q 543 295 563 338 q 583 381 595 437 l 731 437 q 713 352 678 282 q 643 212 590 157 l 703 0 l 510 0 l 473 52 q 421 19 370 2 q 318 -14 264 -14 q 156 -14 91 46 q 25 106 25 203 q 25 277 67 339 q 109 400 197 456 q 186 478 180 500 q 174 521 174 545 q 174 631 241 687 q 307 742 412 742 q 452 742 494 735 q 536 728 581 714 l 557 578 q 519 602 484 613 q 450 624 415 624 q 377 624 355 606 q 333 589 333 559 q 333 541 346 512 q 359 483 385 447 z m 253 363 q 218 338 199 305 q 181 273 181 236 q 181 184 215 148 q 248 112 298 112 q 324 112 350 122 q 376 132 402 153 z"},"_":{"x_min":0,"x_max":450,"ha":450,"o":"m 459 -143 l 459 -236 l -9 -236 l -9 -143 z"},"v":{"x_min":0,"x_max":586,"ha":586,"o":"m 57 547 l 202 547 l 266 165 l 451 547 l 610 547 l 321 0 l 155 0 z"},"O":{"x_min":0,"x_max":765,"ha":765,"o":"m 554 430 q 554 516 519 561 q 484 606 417 606 q 330 606 270 518 q 210 431 210 299 q 210 215 245 168 q 280 122 342 122 q 393 122 432 146 q 471 169 499 216 q 525 260 540 316 q 554 372 554 430 z m 442 742 q 573 742 653 661 q 732 581 732 450 q 732 361 708 282 q 684 203 637 140 q 580 62 502 24 q 424 -14 322 -14 q 191 -14 112 66 q 33 147 33 278 q 33 367 57 446 q 81 525 128 589 q 184 666 262 704 q 340 742 442 742 z"},"(":{"x_min":0,"x_max":411,"ha":411,"o":"m 266 -132 l 138 -132 q 104 -51 86 27 q 69 105 69 182 q 69 326 125 470 q 181 614 293 759 l 421 759 q 318 607 268 459 q 218 311 218 162 q 218 89 230 16 q 242 -57 266 -132 z"},"C":{"x_min":0,"x_max":660,"ha":660,"o":"m 545 34 q 485 10 429 -2 q 373 -14 323 -14 q 191 -14 112 66 q 33 147 33 280 q 33 367 58 445 q 83 522 131 586 q 189 661 270 702 q 351 742 445 742 q 496 742 547 729 q 599 715 652 688 l 625 537 q 582 573 540 589 q 497 606 448 606 q 347 606 278 519 q 209 432 209 302 q 209 218 252 170 q 294 122 368 122 q 413 122 462 140 q 512 158 574 196 z"},"W":{"x_min":0,"x_max":993,"ha":993,"o":"m 96 729 l 253 729 l 273 199 l 479 729 l 640 729 l 661 199 l 860 729 l 1029 729 l 746 0 l 555 0 l 533 554 l 320 0 l 125 0 z"},"A":{"x_min":0,"x_max":696,"ha":696,"o":"m 442 133 l 181 133 l 116 0 l -58 0 l 313 729 l 506 729 l 623 0 l 461 0 z m 245 265 l 420 265 l 381 546 z"},"f":{"x_min":0,"x_max":391,"ha":391,"o":"m 486 760 l 465 645 l 379 645 q 346 645 331 632 q 315 618 310 585 l 302 547 l 436 547 l 414 422 l 281 422 l 207 0 l 49 0 l 123 422 l 45 422 l 67 547 l 144 547 l 151 585 q 167 676 219 718 q 271 760 365 760 z"},"Q":{"x_min":0,"x_max":765,"ha":765,"o":"m 334 -13 q 329 -14 324 -14 q 319 -14 309 -14 q 259 -14 215 1 q 171 16 135 46 q 86 85 60 147 q 33 208 33 278 q 33 367 57 447 q 81 526 128 589 q 185 667 262 704 q 340 742 442 742 q 573 742 653 661 q 732 581 732 450 q 732 297 666 181 q 599 66 479 13 l 580 -146 l 418 -146 z m 554 430 q 554 516 519 561 q 484 606 417 606 q 330 606 270 518 q 210 431 210 299 q 210 215 245 168 q 280 122 342 122 q 393 122 432 146 q 471 169 499 216 q 525 260 540 316 q 554 372 554 430 z"},"w":{"x_min":0,"x_max":831,"ha":831,"o":"m 78 547 l 223 547 l 240 171 l 389 547 l 514 547 l 532 172 l 679 547 l 834 547 l 609 0 l 442 0 l 426 376 l 275 0 l 112 0 z"},"-":{"x_min":0,"x_max":374,"ha":374,"o":"m 48 359 l 324 359 l 299 217 l 22 217 z"},"E":{"x_min":0,"x_max":615,"ha":615,"o":"m 147 729 l 603 729 l 578 587 l 291 587 l 267 451 l 538 451 l 512 309 l 242 309 l 213 142 l 509 142 l 485 0 l 19 0 z"},"s":{"x_min":0,"x_max":536,"ha":536,"o":"m 504 530 l 481 394 q 435 418 389 431 q 343 444 302 444 q 256 444 230 430 q 205 417 205 392 q 205 377 219 369 q 233 360 274 350 l 303 344 q 398 322 437 286 q 475 251 475 188 q 475 93 408 39 q 341 -14 220 -14 q 169 -14 116 -5 q 63 3 9 21 l 33 158 q 75 130 124 116 q 172 102 223 102 q 273 102 298 115 q 323 128 323 154 q 323 171 309 181 q 295 191 251 201 l 222 207 q 138 227 102 265 q 66 303 66 370 q 66 461 128 511 q 190 560 306 560 q 356 560 406 552 q 455 545 504 530 z"},">":{"x_min":0,"x_max":754,"ha":754,"o":"m 95 475 l 95 597 l 659 371 l 659 256 l 95 30 l 95 152 l 520 313 z"},"l":{"x_min":0,"x_max":308,"ha":308,"o":"m 160 760 l 318 760 l 186 0 l 28 0 z"},"8":{"x_min":0,"x_max":626,"ha":626,"o":"m 302 326 q 251 326 217 287 q 182 249 182 192 q 182 151 204 128 q 227 104 266 104 q 318 104 352 142 q 386 181 386 238 q 386 278 364 302 q 341 326 302 326 z m 194 388 q 147 410 123 445 q 100 480 100 530 q 100 629 173 686 q 246 742 375 742 q 479 742 536 699 q 593 656 593 578 q 593 509 553 459 q 514 410 440 388 q 494 365 519 327 q 544 288 544 229 q 544 117 466 51 q 387 -14 249 -14 q 141 -14 80 34 q 20 82 20 168 q 20 246 66 304 q 112 362 194 388 z m 360 624 q 315 624 288 595 q 261 566 261 518 q 261 485 281 464 q 300 444 332 444 q 377 444 404 473 q 431 502 431 550 q 431 583 412 604 q 392 624 360 624 z"},"\\":{"x_min":0,"x_max":329,"ha":329,"o":"m 151 -93 l 63 729 l 161 729 l 248 -93 z"},"e":{"x_min":0,"x_max":610,"ha":610,"o":"m 566 253 l 561 225 l 192 225 q 192 222 192 217 q 191 211 191 208 q 191 155 220 128 q 249 102 307 102 q 356 102 412 119 q 467 135 527 168 l 503 32 q 446 9 389 -3 q 332 -14 273 -14 q 158 -14 95 45 q 33 104 33 212 q 33 274 52 333 q 72 392 111 441 q 156 500 219 530 q 282 560 359 560 q 459 560 518 501 q 576 442 576 342 q 576 322 574 301 q 571 279 566 253 z m 417 333 q 419 339 419 346 q 420 353 420 359 q 420 398 399 421 q 378 444 342 444 q 296 444 263 416 q 231 388 214 333 z"},"b":{"x_min":0,"x_max":644,"ha":644,"o":"m 365 433 q 305 433 266 371 q 228 309 228 209 q 228 164 249 138 q 271 113 310 113 q 369 113 408 174 q 446 235 446 331 q 446 381 426 407 q 405 433 365 433 z m 200 79 l 186 0 l 28 0 l 160 760 l 318 760 l 267 467 q 303 515 343 537 q 382 560 429 560 q 512 560 561 501 q 609 443 609 342 q 609 279 592 219 q 575 160 543 111 q 503 49 453 18 q 403 -14 345 -14 q 295 -14 260 9 q 224 31 200 79 z"},"%":{"x_min":0,"x_max":901,"ha":901,"o":"m 688 301 q 650 301 625 260 q 601 219 601 154 q 601 111 615 90 q 628 69 655 69 q 693 69 718 110 q 742 151 742 217 q 742 258 728 280 q 714 301 688 301 z m 700 383 q 769 383 811 341 q 852 299 852 231 q 852 122 794 54 q 736 -14 642 -14 q 573 -14 531 28 q 490 70 490 139 q 490 248 548 315 q 606 383 700 383 z m 234 -14 l 126 -14 l 669 742 l 776 742 z m 261 742 q 330 742 371 700 q 413 658 413 590 q 413 481 354 413 q 296 345 202 345 q 133 345 91 387 q 50 428 50 497 q 50 605 108 674 q 167 742 261 742 z m 248 660 q 209 660 185 619 q 161 578 161 513 q 161 470 175 448 q 188 427 215 427 q 253 427 277 468 q 301 510 301 576 q 301 617 288 639 q 274 660 248 660 z"},"m":{"x_min":0,"x_max":938,"ha":938,"o":"m 564 456 q 601 506 647 533 q 693 560 744 560 q 810 560 848 520 q 886 479 886 409 q 886 395 884 376 q 881 357 877 333 l 819 0 l 661 0 l 710 285 l 711 292 q 723 353 723 370 q 723 397 709 413 q 695 428 671 428 q 626 428 595 387 q 563 346 550 269 l 502 0 l 344 0 l 394 285 q 401 322 404 341 q 406 359 406 370 q 406 397 393 413 q 379 428 354 428 q 311 428 278 385 q 246 343 233 269 l 186 0 l 28 0 l 124 547 l 282 547 l 267 467 q 304 513 346 537 q 388 560 433 560 q 484 560 520 531 q 557 502 564 456 z"},"#":{"x_min":0,"x_max":626,"ha":626,"o":"m 450 426 l 334 426 l 303 292 l 419 292 z m 400 718 l 358 530 l 474 530 l 517 718 l 614 718 l 571 530 l 702 530 l 679 426 l 548 426 l 518 292 l 648 292 l 625 187 l 495 187 l 453 0 l 355 0 l 397 187 l 282 187 l 239 0 l 142 0 l 184 187 l 59 187 l 82 292 l 205 292 l 236 426 l 112 426 l 135 530 l 260 530 l 302 718 z"},",":{"x_min":0,"x_max":342,"ha":342,"o":"m 72 189 l 230 189 l 204 40 l 63 -142 l -31 -142 l 46 40 z"},"n":{"x_min":0,"x_max":641,"ha":641,"o":"m 581 333 l 522 0 l 364 0 l 414 285 q 419 313 422 332 q 425 352 425 363 q 425 394 409 411 q 394 428 365 428 q 316 428 281 386 q 247 344 233 269 l 186 0 l 28 0 l 124 547 l 282 547 l 267 467 q 311 514 354 537 q 398 560 446 560 q 515 560 552 521 q 588 481 588 409 q 588 394 586 375 q 584 355 581 333 z"},"h":{"x_min":0,"x_max":641,"ha":641,"o":"m 581 333 l 522 0 l 364 0 l 414 285 q 419 313 422 332 q 425 352 425 363 q 425 394 409 411 q 394 428 365 428 q 316 428 281 386 q 247 344 233 269 l 186 0 l 28 0 l 160 760 l 318 760 l 267 467 q 311 514 354 537 q 398 560 446 560 q 515 560 552 521 q 588 481 588 409 q 588 394 586 375 q 584 355 581 333 z"},"z":{"x_min":0,"x_max":523,"ha":523,"o":"m 99 547 l 528 547 l 506 425 l 200 125 l 454 125 l 433 0 l -7 0 l 13 122 l 321 422 l 77 422 z"},"B":{"x_min":0,"x_max":686,"ha":686,"o":"m 360 447 q 405 447 431 472 q 456 498 456 542 q 456 571 438 586 q 420 601 387 601 l 292 601 l 266 447 z m 310 128 q 368 128 399 159 q 430 189 430 247 q 430 284 409 301 q 387 319 343 319 l 243 319 l 209 128 z m 510 390 q 553 376 577 340 q 600 304 600 250 q 600 132 521 66 q 442 0 300 0 l 19 0 l 147 729 l 400 729 q 517 729 573 691 q 629 653 629 573 q 629 506 596 456 q 563 405 510 390 z"},"K":{"x_min":0,"x_max":697,"ha":697,"o":"m 147 729 l 316 729 l 270 467 l 549 729 l 753 729 l 377 375 l 661 0 l 462 0 l 241 304 l 188 0 l 19 0 z"},"R":{"x_min":0,"x_max":693,"ha":693,"o":"m 331 406 q 388 406 418 436 q 447 465 447 523 q 447 559 427 576 q 406 593 362 593 l 292 593 l 259 406 z m 237 276 l 188 0 l 19 0 l 147 729 l 397 729 q 505 729 561 684 q 617 639 617 552 q 617 463 573 406 q 529 349 454 341 q 488 333 511 302 q 534 271 551 207 l 606 0 l 438 0 l 389 181 q 374 235 353 256 q 332 276 291 276 z"},"T":{"x_min":0,"x_max":614,"ha":614,"o":"m 68 729 l 673 729 l 648 587 l 430 587 l 327 0 l 158 0 l 261 587 l 43 587 z"},"P":{"x_min":0,"x_max":659,"ha":659,"o":"m 147 729 l 428 729 q 531 729 589 677 q 647 624 647 531 q 647 474 628 422 q 608 371 573 332 q 534 291 479 272 q 425 253 344 253 l 232 253 l 188 0 l 19 0 z m 292 593 l 257 389 l 350 389 q 410 389 442 420 q 473 452 473 511 q 473 551 451 572 q 428 593 385 593 z"},"|":{"x_min":0,"x_max":329,"ha":329,"o":"m 214 764 l 214 -236 l 114 -236 l 114 764 z"},"t":{"x_min":0,"x_max":430,"ha":430,"o":"m 324 702 l 297 547 l 458 547 l 436 422 l 274 422 l 234 190 q 232 183 232 177 q 231 172 231 167 q 231 145 244 135 q 258 125 290 125 l 371 125 l 349 0 l 216 0 q 145 0 108 33 q 70 66 70 129 q 70 143 72 158 q 73 174 76 190 l 116 422 l 39 422 l 60 547 l 139 547 l 166 702 z"},"M":{"x_min":0,"x_max":896,"ha":896,"o":"m 147 729 l 354 729 l 439 342 l 661 729 l 877 729 l 749 0 l 588 0 l 682 538 l 455 140 l 363 140 l 273 538 l 179 0 l 19 0 z"},"g":{"x_min":0,"x_max":644,"ha":644,"o":"m 376 93 q 338 45 299 22 q 260 0 214 0 q 130 0 82 60 q 33 120 33 223 q 33 278 50 334 q 67 389 99 438 q 138 497 188 528 q 238 559 295 559 q 347 559 383 537 q 418 514 442 466 l 455 547 l 614 547 l 531 72 q 505 -75 422 -146 q 338 -216 190 -216 q 144 -216 102 -208 q 60 -200 18 -184 l 42 -48 q 79 -74 116 -87 q 153 -100 192 -100 q 271 -100 312 -63 q 354 -26 369 55 z m 332 433 q 274 433 236 375 q 197 317 197 229 q 197 179 218 153 q 239 127 278 127 q 336 127 375 185 q 413 243 413 329 q 413 380 392 406 q 372 433 332 433 z"},"j":{"x_min":0,"x_max":308,"ha":308,"o":"m 124 547 l 282 547 l 188 10 q 167 -105 112 -160 q 57 -216 -37 -216 l -115 -216 l -95 -101 l -67 -101 q -23 -101 -2 -79 q 18 -57 29 10 z m 161 760 l 319 760 l 294 617 l 135 617 z"},"i":{"x_min":0,"x_max":308,"ha":308,"o":"m 124 547 l 282 547 l 186 0 l 28 0 z m 160 760 l 318 760 l 293 617 l 135 617 z"},"y":{"x_min":0,"x_max":586,"ha":586,"o":"m 60 547 l 208 547 l 275 168 l 450 547 l 618 547 l 307 -52 q 254 -153 210 -184 q 166 -216 95 -216 l 0 -216 l 16 -101 l 66 -101 q 104 -101 126 -87 q 147 -72 164 -36 l 178 -7 z"},"@":{"x_min":0,"x_max":900,"ha":900,"o":"m 455 391 q 408 391 374 340 q 341 289 341 218 q 341 177 359 155 q 376 134 411 134 q 457 134 490 183 q 522 232 522 303 q 522 345 504 368 q 487 391 455 391 z m 504 120 q 484 83 451 63 q 418 43 379 43 q 316 43 280 89 q 244 135 244 217 q 244 325 306 403 q 369 482 455 482 q 492 482 519 461 q 547 441 556 407 l 566 472 l 655 472 l 597 134 q 663 145 708 214 q 752 283 752 376 q 752 480 680 546 q 608 612 492 612 q 406 612 332 575 q 258 538 206 468 q 166 414 145 350 q 124 285 124 216 q 124 84 196 1 q 269 -82 383 -82 q 435 -82 486 -61 q 537 -40 582 1 l 630 -76 q 566 -124 503 -148 q 440 -172 378 -172 q 318 -172 264 -152 q 209 -132 166 -94 q 104 -42 72 36 q 41 114 41 212 q 41 298 67 378 q 93 458 143 525 q 208 611 298 657 q 388 703 492 703 q 565 703 627 680 q 689 658 738 613 q 784 569 809 511 q 834 453 834 389 q 834 235 744 139 q 654 43 508 43 q 506 43 502 42 q 499 42 497 42 q 494 42 493 42 q 491 42 490 43 z"},".":{"x_min":0,"x_max":342,"ha":342,"o":"m 75 189 l 233 189 l 200 0 l 42 0 z"},"p":{"x_min":0,"x_max":644,"ha":644,"o":"m 200 79 l 149 -208 l -9 -208 l 124 547 l 282 547 l 267 467 q 303 515 343 537 q 382 560 429 560 q 512 560 561 501 q 609 443 609 342 q 609 279 592 219 q 575 160 543 111 q 503 49 453 18 q 403 -14 345 -14 q 295 -14 260 9 q 224 31 200 79 z m 365 433 q 305 433 266 371 q 228 309 228 209 q 228 164 249 138 q 271 113 310 113 q 369 113 408 174 q 446 235 446 331 q 446 381 426 407 q 405 433 365 433 z"},"X":{"x_min":0,"x_max":694,"ha":694,"o":"m 447 369 l 608 0 l 436 0 l 329 244 l 137 0 l -45 0 l 250 374 l 94 729 l 267 729 l 368 500 l 547 729 l 731 729 z"},"*":{"x_min":0,"x_max":470,"ha":470,"o":"m 453 594 l 308 510 l 453 425 l 419 356 l 273 446 l 273 278 l 198 278 l 198 446 l 51 356 l 18 425 l 165 510 l 18 594 l 51 663 l 198 574 l 198 742 l 273 742 l 273 574 l 419 663 z"},"Y":{"x_min":0,"x_max":651,"ha":651,"o":"m 57 729 l 226 729 l 337 459 l 533 729 l 728 729 l 404 304 l 351 0 l 182 0 l 235 304 z"},"c":{"x_min":0,"x_max":533,"ha":533,"o":"m 523 530 l 498 387 q 466 411 436 423 q 405 435 375 435 q 298 435 250 378 q 201 320 201 231 q 201 174 231 142 q 262 111 317 111 q 354 111 389 123 q 425 135 457 159 l 433 16 q 394 1 354 -7 q 314 -14 274 -14 q 159 -14 96 44 q 33 102 33 208 q 33 275 56 338 q 80 401 123 451 q 170 506 232 533 q 294 560 375 560 q 413 560 449 552 q 486 545 523 530 z"},"!":{"x_min":0,"x_max":410,"ha":410,"o":"m 190 729 l 349 729 l 299 449 l 241 245 l 128 245 l 140 449 z m 93 174 l 251 174 l 221 0 l 62 0 z"},"/":{"x_min":0,"x_max":329,"ha":329,"o":"m 289 729 l 391 729 l 16 -93 l -86 -93 z"},"[":{"x_min":0,"x_max":411,"ha":411,"o":"m 147 760 l 419 760 l 399 650 l 277 650 l 159 -22 l 283 -22 l 263 -132 l -9 -132 z"},"6":{"x_min":0,"x_max":626,"ha":626,"o":"m 326 360 q 275 360 243 314 q 211 268 211 196 q 211 152 231 128 q 251 104 286 104 q 336 104 368 149 q 400 194 400 263 q 400 310 381 335 q 362 360 326 360 z m 594 710 l 570 575 q 533 597 497 607 q 461 618 426 618 q 344 618 294 569 q 243 521 232 432 q 266 457 302 469 q 339 481 380 481 q 460 481 512 428 q 563 375 563 292 q 563 157 484 71 q 405 -15 280 -15 q 168 -15 106 55 q 45 126 45 255 q 45 354 72 445 q 99 536 148 601 q 201 671 273 706 q 345 741 435 741 q 476 741 515 733 q 554 726 594 710 z"},"r":{"x_min":0,"x_max":444,"ha":444,"o":"m 463 398 q 446 408 427 414 q 407 419 384 419 q 324 419 284 376 q 244 333 230 252 l 186 0 l 28 0 l 124 547 l 282 547 l 265 453 q 296 505 343 532 q 389 560 446 560 q 455 560 466 559 q 476 558 490 556 z"},"2":{"x_min":0,"x_max":626,"ha":626,"o":"m 222 138 l 508 138 l 483 0 l 7 0 l 32 139 l 311 373 q 356 412 380 452 q 404 492 404 530 q 404 570 380 592 q 355 614 311 614 q 269 614 218 595 q 166 577 102 539 l 130 694 q 189 718 247 730 q 305 742 361 742 q 461 742 519 694 q 576 646 576 563 q 576 492 541 433 q 506 375 386 275 z"},"{":{"x_min":0,"x_max":641,"ha":641,"o":"m 460 -53 l 441 -163 l 345 -163 q 267 -163 227 -133 q 187 -103 187 -43 q 187 -32 189 -18 q 190 -3 193 17 l 209 111 q 212 125 214 139 q 215 152 215 163 q 215 206 195 224 q 175 241 124 241 l 95 241 l 115 350 l 143 350 q 204 350 233 378 q 262 407 274 480 l 292 580 q 308 674 359 717 q 411 760 507 760 l 602 760 l 583 650 l 552 650 q 491 650 469 629 q 446 607 434 538 l 419 457 q 406 381 380 346 q 354 311 304 299 q 339 289 355 267 q 372 245 372 207 q 372 192 370 176 q 368 160 364 140 l 350 59 q 346 37 345 25 q 344 13 344 5 q 344 -28 362 -41 q 379 -53 430 -53 z"},"9":{"x_min":0,"x_max":626,"ha":626,"o":"m 37 16 l 60 151 q 99 129 134 118 q 169 108 205 108 q 287 108 338 157 q 388 206 398 294 q 365 269 329 257 q 292 245 252 245 q 171 245 120 298 q 68 352 68 434 q 68 569 148 655 q 227 741 352 741 q 464 741 525 671 q 587 600 587 471 q 587 372 560 281 q 532 191 482 125 q 430 55 358 20 q 287 -15 197 -15 q 156 -15 116 -7 q 77 0 37 16 z m 305 366 q 355 366 387 412 q 419 458 419 530 q 419 574 400 598 q 381 622 345 622 q 296 622 263 577 q 230 531 230 463 q 230 416 250 391 q 269 366 305 366 z"}," ":{"x_min":0,"x_max":313,"ha":313,"o":""},"I":{"x_min":0,"x_max":334,"ha":334,"o":"m 147 729 l 316 729 l 188 0 l 19 0 z"},"H":{"x_min":0,"x_max":753,"ha":753,"o":"m 147 729 l 316 729 l 267 451 l 517 451 l 565 729 l 734 729 l 606 0 l 438 0 l 491 309 l 242 309 l 188 0 l 19 0 z"},"4":{"x_min":0,"x_max":626,"ha":626,"o":"m 372 569 l 138 269 l 318 269 z m 367 729 l 560 729 l 478 269 l 572 269 l 548 133 l 455 133 l 432 0 l 271 0 l 295 133 l 0 133 l 28 294 z"},"~":{"x_min":0,"x_max":754,"ha":754,"o":"m 659 415 l 659 296 q 612 257 573 240 q 534 223 491 223 q 444 223 381 251 q 375 254 372 256 q 369 257 362 260 q 294 290 253 290 q 214 290 176 271 q 139 252 95 212 l 95 331 q 143 370 182 387 q 221 404 263 404 q 310 404 373 375 q 379 373 382 371 q 385 370 392 367 q 460 337 501 337 q 539 337 576 355 q 613 374 659 415 z"},"D":{"x_min":0,"x_max":747,"ha":747,"o":"m 292 587 l 213 142 l 274 142 q 392 142 461 216 q 530 290 530 415 q 530 500 485 543 q 440 587 351 587 z m 147 729 l 325 729 q 452 729 516 712 q 580 695 622 656 q 665 616 686 560 q 708 503 708 432 q 708 333 671 245 q 634 158 568 98 q 510 45 433 22 q 356 0 197 0 l 19 0 z"},"^":{"x_min":0,"x_max":754,"ha":754,"o":"m 431 729 l 663 457 l 557 457 l 377 604 l 197 457 l 91 457 l 323 729 z"},"0":{"x_min":0,"x_max":626,"ha":626,"o":"m 269 114 q 303 114 329 136 q 355 159 373 202 q 385 233 395 272 q 405 312 414 365 q 421 409 425 445 q 429 482 429 508 q 429 562 412 588 q 394 614 357 614 q 323 614 297 592 q 271 570 254 526 q 241 494 230 454 q 219 413 211 365 q 204 321 200 284 q 196 246 196 220 q 196 166 214 140 q 232 114 269 114 z m 594 480 q 594 383 570 291 q 546 199 502 130 q 458 59 395 22 q 332 -14 255 -14 q 147 -14 90 54 q 33 122 33 249 q 33 345 57 437 q 81 529 124 597 q 169 669 231 706 q 293 742 372 742 q 479 742 536 674 q 594 606 594 480 z"},"F":{"x_min":0,"x_max":615,"ha":615,"o":"m 147 729 l 603 729 l 578 587 l 291 587 l 267 451 l 538 451 l 512 309 l 242 309 l 188 0 l 19 0 z"},"`":{"x_min":0,"x_max":450,"ha":450,"o":"m 242 800 l 334 616 l 248 616 l 118 800 z"},"k":{"x_min":0,"x_max":598,"ha":598,"o":"m 160 760 l 318 760 l 247 348 l 459 547 l 644 547 l 358 294 l 566 0 l 386 0 l 227 236 l 186 0 l 28 0 z"},"u":{"x_min":0,"x_max":641,"ha":641,"o":"m 61 213 l 119 547 l 276 547 l 227 262 q 222 234 219 215 q 216 195 216 184 q 216 153 232 136 q 247 119 275 119 q 324 119 359 161 q 395 203 408 278 l 455 547 l 613 547 l 518 0 l 359 0 l 374 80 q 333 33 289 9 q 244 -14 195 -14 q 128 -14 91 25 q 54 65 54 137 q 54 154 56 173 q 58 192 61 213 z"},"]":{"x_min":0,"x_max":411,"ha":411,"o":"m 248 -132 l -24 -132 l -6 -22 l 117 -22 l 236 650 l 112 650 l 131 760 l 404 760 z"},"U":{"x_min":0,"x_max":730,"ha":730,"o":"m 147 729 l 316 729 l 239 292 q 235 269 233 251 q 231 233 231 219 q 231 171 254 148 q 277 124 323 124 q 385 124 417 162 q 450 201 466 292 l 543 729 l 712 729 l 635 292 q 607 131 527 58 q 447 -14 299 -14 q 183 -14 122 41 q 61 97 61 202 q 61 220 63 241 q 65 263 70 292 z"},"o":{"x_min":0,"x_max":618,"ha":618,"o":"m 337 435 q 276 435 237 374 q 197 312 197 217 q 197 165 219 138 q 240 111 281 111 q 342 111 381 173 q 421 234 421 330 q 421 381 400 408 q 378 435 337 435 z m 350 560 q 460 560 523 498 q 586 436 586 329 q 586 267 566 209 q 546 150 508 102 q 464 44 403 15 q 341 -14 266 -14 q 158 -14 95 48 q 33 110 33 217 q 33 278 53 337 q 73 396 111 445 q 155 501 216 531 q 276 560 350 560 z"},"N":{"x_min":0,"x_max":753,"ha":753,"o":"m 147 729 l 336 729 l 486 224 l 574 729 l 734 729 l 606 0 l 417 0 l 267 505 l 179 0 l 19 0 z"},"+":{"x_min":0,"x_max":754,"ha":754,"o":"m 429 627 l 429 371 l 659 371 l 659 256 l 429 256 l 429 0 l 325 0 l 325 256 l 95 256 l 95 371 l 325 371 l 325 627 z"},"G":{"x_min":0,"x_max":738,"ha":738,"o":"m 613 54 q 549 20 480 3 q 411 -14 332 -14 q 192 -14 113 65 q 33 144 33 280 q 33 368 58 446 q 83 523 132 587 q 193 665 275 704 q 358 742 464 742 q 522 742 582 729 q 642 715 700 688 l 674 537 q 621 572 569 589 q 518 606 466 606 q 353 606 282 522 q 210 438 210 306 q 210 219 252 170 q 293 122 369 122 q 394 122 418 126 q 443 129 468 137 l 493 279 l 390 279 l 411 405 l 674 405 z"},"q":{"x_min":0,"x_max":644,"ha":644,"o":"m 442 467 l 455 547 l 614 547 l 481 -208 l 323 -208 l 374 79 q 338 31 299 9 q 259 -14 212 -14 q 129 -14 81 44 q 33 103 33 204 q 33 267 50 327 q 66 386 98 435 q 138 497 188 528 q 239 560 296 560 q 347 560 382 537 q 417 515 442 467 z m 276 113 q 337 113 375 175 q 413 237 413 337 q 413 382 392 408 q 371 433 332 433 q 272 433 234 372 q 195 311 195 215 q 195 165 216 139 q 237 113 276 113 z"},"d":{"x_min":0,"x_max":644,"ha":644,"o":"m 276 113 q 337 113 375 175 q 413 237 413 337 q 413 382 392 408 q 371 433 332 433 q 272 433 234 372 q 195 311 195 215 q 195 165 216 139 q 237 113 276 113 z m 442 467 l 493 760 l 652 760 l 519 0 l 360 0 l 375 79 q 338 31 299 9 q 259 -14 212 -14 q 129 -14 81 44 q 33 103 33 204 q 33 267 50 327 q 66 386 98 435 q 138 497 188 528 q 239 560 296 560 q 347 560 382 537 q 417 515 442 467 z"},"1":{"x_min":0,"x_max":626,"ha":626,"o":"m 62 130 l 211 130 l 293 601 l 134 566 l 156 694 l 315 729 l 476 729 l 372 130 l 521 130 l 498 0 l 39 0 z"},"5":{"x_min":0,"x_max":626,"ha":626,"o":"m 159 729 l 580 729 l 556 591 l 270 591 l 250 478 q 270 484 290 487 q 311 490 332 490 q 433 490 490 439 q 546 388 546 298 q 546 154 459 70 q 371 -14 222 -14 q 167 -14 115 -2 q 63 10 12 34 l 38 182 q 86 147 132 130 q 178 114 226 114 q 295 114 337 154 q 379 194 379 260 q 379 307 347 334 q 315 362 261 362 q 224 362 181 351 q 139 341 87 319 z"}}}
